Coordinates
version=1
nRows=6
nColumns=34
inDegrees=yes

Units are S.I. units (second, meters, Newtons, ...)
If the header above contains a line with 'inDegrees', this indicates whether rotational values are in degrees (yes) or radians (no).

endheader
time	pelvis_tilt	pelvis_list	pelvis_rotation	pelvis_tx	pelvis_ty	pelvis_tz	hip_flexion_r	hip_adduction_r	hip_rotation_r	knee_angle_r	ankle_angle_r	subtalar_angle_r	mtp_angle_r	hip_flexion_l	hip_adduction_l	hip_rotation_l	knee_angle_l	ankle_angle_l	subtalar_angle_l	mtp_angle_l	lumbar_extension	lumbar_bending	lumbar_rotation	arm_flex_r	arm_add_r	arm_rot_r	elbow_flex_r	pro_sup_r	arm_flex_l	arm_add_l	arm_rot_l	elbow_flex_l	pro_sup_l
      2.53333330	     -4.79866017	      0.57411468	     -5.74624923	      1.65593888	      0.97271157	     -0.01410847	      2.70943650	     -5.18151040	     -0.32589701	      0.77858190	      4.74224086	    -16.05508123	      0.00000000	      4.01298742	     -4.01544454	      5.16226839	      1.83191854	      2.95409523	     -8.91199109	      0.00000000	     -9.07424516	      1.56855450	      0.03157149	     11.33513344	     -8.25492225	     37.28955131	     80.67854842	     86.93464733	     11.67508612	     -6.05015501	     31.68883423	     62.44701887	     84.37640215
      2.55000000	     -5.09457783	      0.58232668	     -5.90075145	      1.65467416	      0.97160067	     -0.01439844	      3.17811665	     -5.15948745	     -0.37793160	      0.81749429	      4.79287399	    -15.86857921	      0.00000000	      4.61749890	     -4.07071858	      4.95794338	      2.22516862	      2.94144586	     -9.03568903	      0.00000000	     -9.31796879	      1.56170451	      0.04281582	     11.68182421	     -8.21767950	     37.19930863	     80.44998482	     86.83728859	     11.93337148	     -5.96614391	     31.58435958	     62.35059184	     84.32865090
      2.56666670	     -5.60280782	      0.60809090	     -6.07988901	      1.65368864	      0.97136218	     -0.01424210	      4.01024973	     -5.14697119	     -0.51797667	      1.12092136	      4.98776368	    -15.50159878	      0.00000000	      5.54268266	     -4.13441376	      4.75511292	      2.83154406	      3.03147518	     -9.21365989	      0.00000000	     -9.27147057	      1.57964807	      0.03595542	     11.92509128	     -8.11918756	     37.12846102	     80.01033179	     86.62960159	     12.05119449	     -5.87113378	     31.40609475	     62.14642226	     84.23186173
      2.58333330	     -6.30358713	      0.66663818	     -6.21263617	      1.65347049	      0.97159840	     -0.01390050	      4.91876343	     -5.13577887	     -0.77295102	      1.21721807	      5.31613446	    -14.94148142	      0.00000000	      6.54509342	     -4.18563572	      4.60892733	      3.18115655	      3.06759137	     -9.30893149	      0.00000000	     -8.84592697	      1.57877457	     -0.10103783	     12.23819593	     -7.92737783	     37.01704764	     79.59584776	     86.25902590	     12.22303915	     -5.76393356	     31.08586968	     61.97922078	     84.06422531
      2.60000000	     -6.52145957	      0.69925606	     -6.32507584	      1.65370024	      0.97196195	     -0.01351661	      5.12804067	     -5.13758289	     -0.70086348	      1.02959248	      5.25912468	    -14.76676913	      0.00000000	      6.91789325	     -4.22755835	      4.48194880	      3.40192231	      2.90959144	     -9.30177814	      0.00000000	     -9.10555440	      1.53808473	     -0.17207961	     12.64545893	     -7.83276316	     36.89646562	     79.60566806	     86.20119068	     12.65777194	     -5.68875303	     30.97092686	     62.03492713	     84.03612555
      2.61666670	     -6.78913382	      0.73053777	     -6.41472294	      1.65412978	      0.97178675	     -0.01324919	      5.35568839	     -5.14175840	     -0.71742215	      0.82354616	      5.23547360	    -14.67409807	      0.00000000	      7.26538415	     -4.27296025	      4.30856498	      3.48585990	      2.85517145	     -9.35943522	      0.00000000	     -9.42874224	      1.50899843	     -0.21114343	     12.94706322	     -7.73257279	     36.81025364	     79.60555253	     86.17004071	     12.99533669	     -5.62928746	     30.88673672	     62.07367860	     84.01876520
